# xmcd CD database file
#
# Track frame offsets:
#	151
#	15189
#	29042
#
# Disc length: 625 seconds
#
# Revision: 0
# Processed by: cddbd v1.4b41PL3 Copyright (c) Steve Scherf et al.
# Submitted via: Feurio! 1.61 - http://www.feurio.com
#
DISCID=18026f03
DTITLE=Ronnie Beard - Bump-N-Grind
DYEAR=1900
DGENRE=
TTITLE0=Bump-N-Grind
TTITLE1=Uh ChiHuaHua
TTITLE2=Santa Claus
EXTD=
EXTT0=
EXTT1=
EXTT2=
PLAYORDER=
